<svg width="542" height="342" viewBox="0 0 542 342" fill="none" xmlns="http://www.w3.org/2000/svg">
<path d="M0 -80H542V94.4401V102.569V462H393.641H386.265H97.3078H89.3345H0V-80ZM0 -80V462H89.3345C86.3543 460.944 82.8993 460.74 79.773 460.229C72.4835 459.041 65.7731 455.664 59.7108 451.538C47.3877 443.154 37.9588 429.099 35.2843 414.361C34.6316 410.764 34.1801 407.033 34.115 403.378C33.9433 393.726 35.3726 383.78 36.8028 374.253C40.6741 348.471 46.3489 322.305 55.9506 298.008C59.9815 287.806 65.2951 277.355 71.5456 268.336C81.4178 254.095 94.6941 240.87 112.365 237.718C112.337 224.224 115.093 210.597 121.591 198.685C117.697 193.501 113.709 187.231 109.504 182.463C105.462 182.441 101.479 183.381 97.3832 183.277C84.0187 182.937 68.567 176.821 57.4351 169.374C49.6049 164.136 42.3774 157.519 35.8821 150.731C16.7089 130.695 3.01318 98.3656 3.75017 70.4868C4.26383 51.0566 9.12241 37.1768 23.3928 23.6506C22.4281 22.2011 21.6596 20.6458 20.8966 19.0836C16.0103 8.97086 11.337 -1.24339 6.87969 -11.5524C5.14119 -15.5052 2.76568 -19.5384 1.79543 -23.7569C1.19704 -26.3584 1.28382 -28.976 2.19993 -31.4955C3.38737 -34.761 5.90468 -38.1993 9.10811 -39.6475C12.4001 -41.1358 17.0207 -40.9297 20.3361 -39.5577C22.5512 -38.6492 24.477 -37.1546 25.907 -35.2345C29.3971 -30.56 33.8909 -19.1526 36.422 -13.4547C40.6095 -4.0279 44.9889 5.31155 48.9901 14.8209C61.0838 15.9493 66.1087 16.485 77.2956 21.8568C103.7 34.5359 124.404 64.2673 133.788 91.3511C139.975 109.209 142.208 130.903 137.656 149.363C136.166 155.407 133.915 160.816 131.201 166.396C132.814 168.176 139.884 177.525 141.134 178.095C141.467 178.247 141.836 178.197 142.175 178.081C143.773 177.535 145.572 176.235 147.083 175.423C150.586 173.541 154.11 171.729 157.747 170.12C201.65 150.698 265.569 160.272 309.689 175.212C313.521 176.51 317.284 178.069 321.061 179.526L332.224 134.439C336.238 118.549 340.46 102.729 344.212 86.773C342.196 83.0002 340.386 79.2196 338.623 75.3261C330.182 56.5987 321.936 37.7839 313.886 18.8848L305.754 0.128136C303.552 -5.04071 301.03 -10.2948 299.99 -15.85C298.198 -25.4332 299.36 -35.7145 302.832 -44.7914C307.873 -57.9698 318.748 -68.8877 331.642 -74.5037C345.067 -80.3514 357.948 -80.9211 371.688 -75.4433C381.679 -71.4601 390.457 -63.8934 396.629 -55.1438C399.881 -50.5327 401.956 -45.3573 404.2 -40.218C406.754 -34.4046 409.251 -28.5661 411.69 -22.7033L438.594 41.7192C443.281 42.3785 448.264 42.1424 452.991 42.198L476.071 42.4621C482.052 42.5338 488.149 42.4237 494.088 43.1925C506.05 44.7418 517.573 50.631 526.055 59.1683C532.666 65.82 537.739 74.7497 540.068 83.8364C540.473 85.4217 540.955 87.0702 540.952 88.7102C541.291 90.572 541.423 92.6519 542 94.4401V-80H0ZM542 102.569C541.661 103.75 541.415 104.904 541.206 106.114C540.383 113.041 538.193 119.737 534.764 125.812C531.334 131.888 526.734 137.222 521.228 141.507C501.686 156.85 485.291 155.303 462.034 153.067C453.412 152.238 444.726 151.583 436.141 150.423C435.504 150.333 434.872 150.216 434.246 150.072C432.144 156.741 430.594 163.646 428.85 170.42L420.722 201.395C417.962 211.788 416.051 222.393 410.411 231.716C406.349 238.438 400.103 243.964 393.27 247.751C398.637 252.615 403.684 257.26 408.218 262.961C416.078 272.843 421.977 283.823 426.96 295.383C441.563 329.258 446.2 365.546 447.949 402.089C448.659 416.891 444.014 430.909 433.928 441.924C426.634 449.89 415.448 457.197 404.891 459.851C401.363 460.738 396.904 460.753 393.641 462H542V102.569ZM168.794 289.055C169.814 299.638 170.828 310.063 170.498 320.72C170.268 328.165 169.266 335.641 168.302 343.025C164.841 369.545 158.4 401.131 147.131 425.444C139.755 441.357 128.252 454.473 110.884 459.534C106.832 460.711 100.759 460.666 97.5129 461.915C97.4438 461.942 97.3761 461.971 97.3078 462H386.265C383.624 460.78 378.275 460.529 375.197 459.901C364.064 457.625 352.684 450.578 345.332 441.974C339.483 435.133 335.291 427.188 331.949 418.87C327.685 408.26 325.015 397.254 322.593 386.107C317.692 363.556 314.299 340.127 313.995 317.023C313.87 307.541 314.831 298.106 315.596 288.669C304.195 292.476 292.52 295.407 280.673 297.436C272.675 298.826 264.606 299.593 256.521 300.226C227.809 302.475 195.222 302.099 168.794 289.055ZM540.952 88.7102C540.701 91.6602 540.955 94.6926 540.994 97.6521C541.031 100.49 540.822 103.289 541.206 106.114C541.415 104.904 541.661 103.75 542 102.569V94.4401C541.423 92.6519 541.291 90.572 540.952 88.7102Z" fill="url(#paint0_linear_3343_1411)"/>
<defs>
<linearGradient id="paint0_linear_3343_1411" x1="271" y1="-80" x2="271" y2="462" gradientUnits="userSpaceOnUse">
<stop offset="0.163462" stop-color="#FFDB0D"/>
<stop offset="0.456731" stop-color="#FF6B00"/>
<stop offset="0.754808" stop-color="#FF00BF"/>
</linearGradient>
</defs>
</svg>
